{"title":"EICHMANN","uid":9018979,"size":960420198,"categoryP":"video","categoryS":"movies","magnet":"?xt=urn:btih:2048e75732a5719c51c425a6578b43559704426f&amp;dn=EICHMANN&amp;tr=udp%3A%2F%2Ftracker.openbittorrent.com%3A80&amp;tr=udp%3A%2F%2Fopen.demonii.com%3A1337&amp;tr=udp%3A%2F%2Ftracker.coppersurfer.tk%3A6969&amp;tr=udp%3A%2F%2Fexodus.desync.com%3A6969","seeders":0,"leechers":2,"uploader":"CATRIX02","files":-1,"time":1381255308,"description":"Complete name                            : EICHMANN ( 2007 )dvd.rip.mp4.ULED BY CATRIX02\nFormat                                   : MPEG-4\nFormat profile                           : Base Media\nCodec ID                                 : isom\nFile size                                : 914 MiB\nDuration                                 : 1h 36mn\nOverall bit rate                         : 1 329 Kbps\nMovie name                               : EICHMANN\nGenre                                    : War_based_on_fact\nWriting application                      : Lavf54.46.100\n &lt;a href=&quot;\nhttp://www.imdb.com/title/tt0901481/?ref_=fn_al_tt_1&quot; rel=&quot;nofollow&quot; target=&quot;_NEW&quot;&gt;\nhttp://www.imdb.com/title/tt0901481/?ref_=fn_al_tt_1&lt;/a&gt;\n &lt;a href=&quot;\nhttp://postimg.org/image/ja4d4bk7n/&quot; rel=&quot;nofollow&quot; target=&quot;_NEW&quot;&gt;\nhttp://postimg.org/image/ja4d4bk7n/&lt;/a&gt; &lt;a href=&quot;\nhttp://postimg.org/image/gknyxwqzr/&quot; rel=&quot;nofollow&quot; target=&quot;_NEW&quot;&gt;\nhttp://postimg.org/image/gknyxwqzr/&lt;/a&gt; &lt;a href=&quot;\nhttp://postimg.org/image/jyb520i1b/&quot; rel=&quot;nofollow&quot; target=&quot;_NEW&quot;&gt;\nhttp://postimg.org/image/jyb520i1b/&lt;/a&gt; &lt;a href=&quot;\nhttp://postimg.org/image/irwszklnr/&quot; rel=&quot;nofollow&quot; target=&quot;_NEW&quot;&gt;\nhttp://postimg.org/image/irwszklnr/&lt;/a&gt; &lt;a href=&quot;\nhttp://postimg.org/image/llc2j6ix9/&quot; rel=&quot;nofollow&quot; target=&quot;_NEW&quot;&gt;\nhttp://postimg.org/image/llc2j6ix9/&lt;/a&gt;\n\nID                                       : 1\nFormat                                   : MPEG-4 Visual\nFormat settings, BVOP                    : No\nFormat settings, QPel                    : No\nFormat settings, GMC                     : No warppoints\nFormat settings, Matrix                  : Default (H.263)\nCodec ID                                 : 20\nDuration                                 : 1h 36mn\nBit rate mode                            : Constant\nBit rate                                 : 1 196 Kbps\nWidth                                    : 720 pixels\nHeight                                   : 406 pixels\nDisplay aspect ratio                     : 16:9\nFrame rate mode                          : Constant\nFrame rate                               : 23.976 fps\nColor space                              : YUV\nChroma subsampling                       : 4:2:0\nBit depth                                : 8 bits\nScan type                                : Progressive\nCompression mode                         : Lossy\nBits/(Pixel*Frame)                       : 0.171\nStream size                              : 823 MiB (90%)\nWriting library                          : Lavc54.79.100\n\nID                                       : 2\nFormat                                   : AAC\nFormat/Info                              : Advanced Audio Codec\nFormat profile                           : LC\nCodec ID                                 : 40\nDuration                                 : 1h 36mn\nBit rate mode                            : Constant\nBit rate                                 : 128 Kbps\nChannel(s)                               : 2 channels\nChannel positions                        : Front: L R\nSampling rate                            : 44.1 KHz\nCompression mode                         : Lossy\nStream size                              : 88.0 MiB (10%)","torrent":{"xt":"urn:btih:2048e75732a5719c51c425a6578b43559704426f","amp;dn":"EICHMANN","amp;tr":["udp%3A%2F%2Ftracker.openbittorrent.com%3A80","udp%3A%2F%2Fopen.demonii.com%3A1337","udp%3A%2F%2Ftracker.coppersurfer.tk%3A6969","udp%3A%2F%2Fexodus.desync.com%3A6969"],"infoHash":"2048e75732a5719c51c425a6578b43559704426f","infoHashBuffer":{"type":"Buffer","data":[32,72,231,87,50,165,113,156,81,196,37,166,87,139,67,85,151,4,66,111]},"announce":[],"urlList":[]}}